<svg width="34" height="29" viewBox="0 0 34 29" fill="none" xmlns="http://www.w3.org/2000/svg">
<path d="M7 26.8959L9.2597 9.57151C9.52069 7.57062 12.2145 7.11659 13.1169 8.9214V8.9214C13.2052 9.09791 13.2674 9.28627 13.3017 9.48061L15.3444 21.0557C15.9405 24.4335 18.8754 26.8959 22.3054 26.8959V26.8959C23.2046 26.8959 24.1048 26.7206 24.9397 26.3867V26.3867C27.3569 25.4198 29.1019 23.2242 29.4701 20.647L32 2.93756" stroke="#05FF00" stroke-width="3"/>
<path d="M27 2.10417L24.7403 19.4285C24.4793 21.4294 21.7855 21.8835 20.8831 20.0787V20.0787C20.7948 19.9021 20.7326 19.7138 20.6983 19.5195L18.6556 7.94432C18.0595 4.56655 15.1246 2.10417 11.6946 2.10417V2.10417C10.7954 2.10417 9.89519 2.27942 9.06025 2.6134V2.6134C6.64309 3.58027 4.89809 5.77589 4.52992 8.3531L2 26.0625" stroke="#05FF00" stroke-width="3"/>
</svg>
